<?xml version="1.0" standalone="no"?>
<!DOCTYPE svg PUBLIC "-//W3C//DTD SVG 20010904//EN"
 "http://www.w3.org/TR/2001/REC-SVG-20010904/DTD/svg10.dtd">
<svg version="1.0" xmlns="http://www.w3.org/2000/svg"
 width="400.000000pt" height="400.000000pt" viewBox="0 0 400.000000 400.000000"
 preserveAspectRatio="xMidYMid meet">
<metadata>
Created by potrace 1.14, written by Peter Selinger 2001-2017
</metadata>
<g transform="translate(0.000000,400.000000) scale(0.100000,-0.100000)"
fill="#000000" stroke="none">
<path d="M1781 3410 c-490 -62 -897 -353 -1111 -795 -105 -215 -150 -416 -150
-668 0 -240 41 -425 139 -633 66 -139 138 -242 250 -358 178 -182 388 -298
641 -352 103 -22 352 -25 450 -5 294 58 544 212 716 440 151 202 229 421 241
676 12 268 -47 493 -182 701 -135 208 -345 360 -585 426 -120 32 -356 32 -475
0 -337 -92 -586 -357 -657 -702 -16 -77 -19 -120 -15 -225 6 -150 23 -225 79
-345 94 -203 262 -352 468 -415 82 -25 249 -30 340 -11 188 39 356 169 439
336 121 247 83 539 -91 706 -68 65 -100 86 -169 112 -210 77 -432 -4 -520
-191 -90 -194 -4 -423 172 -451 115 -18 229 68 229 174 0 47 -11 73 -48 113
-36 38 -107 39 -146 1 l-26 -27 0 41 c0 32 7 49 32 78 41 46 83 64 150 64 175
-1 303 -186 269 -386 -33 -188 -177 -327 -370 -357 -151 -23 -320 40 -433 162
-112 121 -162 255 -162 431 0 126 18 201 76 320 58 120 178 240 298 298 120
59 194 76 325 76 374 -1 682 -267 772 -668 10 -46 16 -118 16 -206 -1 -113 -5
-151 -27 -235 -97 -369 -370 -632 -741 -711 -94 -20 -280 -19 -380 1 -111 23
-240 73 -337 131 -97 58 -254 208 -318 303 -213 318 -266 722 -144 1090 229
690 962 1023 1640 747 413 -169 721 -566 810 -1046 27 -144 25 -420 -4 -565
-51 -258 -151 -477 -308 -679 -47 -59 -54 -74 -54 -113 0 -38 5 -50 35 -80 32
-32 39 -35 78 -30 51 7 97 53 192 196 124 187 220 422 267 653 20 98 23 144
23 343 0 201 -3 244 -23 343 -136 671 -615 1165 -1237 1277 -111 19 -335 27
-434 15z"/>
</g>
</svg>
